G04 #@! TF.FileFunction,Soldermask,Top*
%FSLAX46Y46*%
G04 Gerber Fmt 4.6, Leading zero omitted, Abs format (unit mm)*
G04 Created by KiCad (PCBNEW 4.0.2-stable) date 19.06.2016 23:35:54*
%MOMM*%
G01*
G04 APERTURE LIST*
%ADD10C,0.100000*%
%ADD11R,2.432000X4.057600*%
%ADD12R,2.432000X1.416000*%
%ADD13C,1.800000*%
%ADD14R,1.200000X1.150000*%
%ADD15R,1.700000X1.700000*%
%ADD16C,1.700000*%
%ADD17R,2.127200X2.127200*%
%ADD18O,2.127200X2.127200*%
%ADD19R,1.400000X2.000000*%
%ADD20R,1.300000X0.900000*%
%ADD21R,1.900000X1.000000*%
%ADD22R,1.150000X1.200000*%
%ADD23R,2.000000X1.400000*%
%ADD24R,1.197560X1.197560*%
%ADD25R,0.900000X1.300000*%
%ADD26C,2.800000*%
%ADD27C,1.600000*%
%ADD28R,0.800000X1.300000*%
%ADD29R,3.600000X3.000000*%
%ADD30C,6.800000*%
%ADD31R,1.400000X0.685000*%
%ADD32R,4.000000X6.800000*%
%ADD33R,5.260000X3.760000*%
%ADD34R,1.800000X1.790000*%
G04 APERTURE END LIST*
D10*
D11*
X105918000Y-65405000D03*
D12*
X112522000Y-65405000D03*
X112522000Y-63119000D03*
X112522000Y-67691000D03*
D13*
X166500000Y-89000000D03*
X173500000Y-92600000D03*
D14*
X148513800Y-64998600D03*
X150013800Y-64998600D03*
D15*
X189000000Y-75000000D03*
D16*
X184000000Y-75000000D03*
D17*
X139874000Y-91643200D03*
D18*
X139874000Y-94183200D03*
X137334000Y-91643200D03*
X137334000Y-94183200D03*
X134794000Y-91643200D03*
X134794000Y-94183200D03*
X132254000Y-91643200D03*
X132254000Y-94183200D03*
X129714000Y-91643200D03*
X129714000Y-94183200D03*
X127174000Y-91643200D03*
X127174000Y-94183200D03*
X124634000Y-91643200D03*
X124634000Y-94183200D03*
X122094000Y-91643200D03*
X122094000Y-94183200D03*
D19*
X152506560Y-64770000D03*
X155506560Y-64770000D03*
D20*
X118110000Y-79768000D03*
X118110000Y-81268000D03*
D21*
X121723200Y-75184000D03*
X121723200Y-76454000D03*
X121723200Y-77724000D03*
X121723200Y-78994000D03*
X121723200Y-80264000D03*
X121723200Y-81534000D03*
X121723200Y-82804000D03*
X127123200Y-82804000D03*
X127123200Y-81534000D03*
X127123200Y-80264000D03*
X127123200Y-78994000D03*
X127123200Y-77724000D03*
X127123200Y-76454000D03*
X127123200Y-75184000D03*
D14*
X116292738Y-77724000D03*
X117792738Y-77724000D03*
D22*
X116078000Y-81268000D03*
X116078000Y-79768000D03*
X133159500Y-75386500D03*
X133159500Y-76886500D03*
D14*
X134933000Y-70993000D03*
X136433000Y-70993000D03*
X134933000Y-73152000D03*
X136433000Y-73152000D03*
X137198680Y-68559680D03*
X138698680Y-68559680D03*
X157397460Y-73149460D03*
X155897460Y-73149460D03*
D22*
X150389600Y-69605020D03*
X150389600Y-68105020D03*
X150361660Y-78392020D03*
X150361660Y-79892020D03*
D14*
X153045300Y-71117460D03*
X151545300Y-71117460D03*
X153042760Y-76868020D03*
X151542760Y-76868020D03*
X157390540Y-74848720D03*
X155890540Y-74848720D03*
D19*
X152530560Y-83367880D03*
X155530560Y-83367880D03*
D23*
X179287180Y-62600000D03*
X179287180Y-59600000D03*
X179264320Y-72600000D03*
X179264320Y-69600000D03*
X179264320Y-82600000D03*
X179264320Y-79600000D03*
X179271940Y-92600000D03*
X179271940Y-89600000D03*
D24*
X112803700Y-75057000D03*
X114302300Y-75057000D03*
X112803700Y-72511250D03*
X114302300Y-72511250D03*
D25*
X112803000Y-77724000D03*
X114303000Y-77724000D03*
X116292738Y-75051250D03*
X117792738Y-75051250D03*
D20*
X115570000Y-66905000D03*
X115570000Y-65405000D03*
D25*
X116292738Y-72511250D03*
X117792738Y-72511250D03*
D20*
X115570000Y-68592000D03*
X115570000Y-70092000D03*
D22*
X129984500Y-75377040D03*
X129984500Y-76877040D03*
D13*
X166500000Y-59000000D03*
X173500000Y-62600000D03*
X166500000Y-69000000D03*
X173500000Y-72600000D03*
X166500000Y-79000000D03*
X173500000Y-82600000D03*
D26*
X111800000Y-55973980D03*
X116800000Y-55973980D03*
X185801000Y-61000000D03*
X185801000Y-66000000D03*
X185801000Y-83987000D03*
X185801000Y-88987000D03*
D22*
X117856000Y-65417000D03*
X117856000Y-66917000D03*
D23*
X123063000Y-64008000D03*
X123063000Y-67008000D03*
D27*
X129032000Y-67691000D03*
X131572000Y-70231000D03*
X126492000Y-70231000D03*
D28*
X137826700Y-83592300D03*
X137026700Y-83592300D03*
X138626700Y-83592300D03*
X136226700Y-83592300D03*
X138626700Y-85292300D03*
X137826700Y-85292300D03*
X137026700Y-85292300D03*
X136226700Y-85292300D03*
D23*
X193929000Y-69263000D03*
X193929000Y-72263000D03*
D14*
X127877000Y-64008000D03*
X126377000Y-64008000D03*
D22*
X128651000Y-53975000D03*
X128651000Y-55475000D03*
D29*
X123825000Y-59905000D03*
X123825000Y-52705000D03*
D30*
X105000000Y-55000000D03*
X195000000Y-55000000D03*
X195000000Y-95000000D03*
X105000000Y-95000000D03*
D31*
X141010000Y-69250000D03*
X141010000Y-69750000D03*
X141010000Y-70250000D03*
X141010000Y-70750000D03*
X141010000Y-71250000D03*
X141010000Y-71750000D03*
X141010000Y-72250000D03*
X141010000Y-72750000D03*
X141010000Y-73250000D03*
X141010000Y-73750000D03*
X141010000Y-74250000D03*
X141010000Y-74750000D03*
X141010000Y-75250000D03*
X141010000Y-75750000D03*
X141010000Y-76250000D03*
X141010000Y-76750000D03*
X141010000Y-77250000D03*
X141010000Y-77750000D03*
X141010000Y-78250000D03*
X141010000Y-78750000D03*
X141010000Y-79250000D03*
X141010000Y-79750000D03*
X141010000Y-80250000D03*
X141010000Y-80750000D03*
X148510000Y-80750000D03*
X148510000Y-80250000D03*
X148510000Y-79750000D03*
X148510000Y-79250000D03*
X148510000Y-78750000D03*
X148510000Y-78250000D03*
X148510000Y-77750000D03*
X148510000Y-77250000D03*
X148510000Y-76750000D03*
X148510000Y-76250000D03*
X148510000Y-75750000D03*
X148510000Y-75250000D03*
X148510000Y-74750000D03*
X148510000Y-74250000D03*
X148510000Y-73750000D03*
X148510000Y-73250000D03*
X148510000Y-72750000D03*
X148510000Y-72250000D03*
X148510000Y-71750000D03*
X148510000Y-71250000D03*
X148510000Y-70750000D03*
X148510000Y-70250000D03*
X148510000Y-69750000D03*
X148510000Y-69250000D03*
D32*
X144760000Y-75000000D03*
D33*
X135255000Y-53340000D03*
D34*
X131273000Y-52420000D03*
X131273000Y-54260000D03*
M02*
