G04 #@! TF.FileFunction,Paste,Top*
%FSLAX46Y46*%
G04 Gerber Fmt 4.6, Leading zero omitted, Abs format (unit mm)*
G04 Created by KiCad (PCBNEW 4.0.2-stable) date 19.06.2016 23:35:53*
%MOMM*%
G01*
G04 APERTURE LIST*
%ADD10C,0.100000*%
%ADD11R,2.032000X3.657600*%
%ADD12R,2.032000X1.016000*%
%ADD13R,0.800000X0.750000*%
%ADD14R,1.000000X1.600000*%
%ADD15R,0.900000X0.500000*%
%ADD16R,1.500000X0.600000*%
%ADD17R,0.750000X0.800000*%
%ADD18R,1.600000X1.000000*%
%ADD19R,0.797560X0.797560*%
%ADD20R,0.500000X0.900000*%
%ADD21R,0.400000X0.900000*%
%ADD22R,3.200000X2.600000*%
%ADD23R,1.000000X0.285000*%
%ADD24R,4.860000X3.360000*%
%ADD25R,1.400000X1.390000*%
G04 APERTURE END LIST*
D10*
X144410000Y-74100000D02*
X144410000Y-75900000D01*
X144310000Y-74100000D02*
X144310000Y-75900000D01*
X144210000Y-74100000D02*
X144210000Y-75900000D01*
X144110000Y-74100000D02*
X144110000Y-75900000D01*
X144010000Y-74100000D02*
X144010000Y-75900000D01*
X143910000Y-74100000D02*
X143910000Y-75900000D01*
X143810000Y-74100000D02*
X143810000Y-75900000D01*
X143710000Y-74100000D02*
X143710000Y-75900000D01*
X143610000Y-74100000D02*
X143610000Y-75900000D01*
X143510000Y-74100000D02*
X143510000Y-75900000D01*
X143410000Y-74100000D02*
X143410000Y-75900000D01*
X143310000Y-74100000D02*
X143310000Y-75900000D01*
X143210000Y-74100000D02*
X143210000Y-75900000D01*
X143110000Y-74100000D02*
X143110000Y-75900000D01*
X144410000Y-71850000D02*
X144410000Y-73600000D01*
X144310000Y-71850000D02*
X144310000Y-73600000D01*
X144210000Y-71850000D02*
X144210000Y-73600000D01*
X144110000Y-71850000D02*
X144110000Y-73600000D01*
X144010000Y-71850000D02*
X144010000Y-73600000D01*
X143910000Y-71850000D02*
X143910000Y-73600000D01*
X143810000Y-71850000D02*
X143810000Y-73600000D01*
X143710000Y-71850000D02*
X143710000Y-73600000D01*
X143610000Y-71850000D02*
X143610000Y-73550000D01*
X143510000Y-71850000D02*
X143510000Y-73600000D01*
X143410000Y-71850000D02*
X143410000Y-73600000D01*
X143310000Y-71850000D02*
X143310000Y-73600000D01*
X143210000Y-71850000D02*
X143210000Y-73600000D01*
X143110000Y-71850000D02*
X143110000Y-73600000D01*
X144510000Y-73600000D02*
X143010000Y-73600000D01*
X144510000Y-71850000D02*
X144510000Y-73600000D01*
X143010000Y-71850000D02*
X144510000Y-71850000D01*
X143010000Y-73600000D02*
X143010000Y-71850000D01*
X144510000Y-75900000D02*
X143010000Y-75900000D01*
X143010000Y-74100000D02*
X144510000Y-74100000D01*
X144510000Y-74100000D02*
X144510000Y-75900000D01*
X143010000Y-75900000D02*
X143010000Y-74100000D01*
X143210000Y-76400000D02*
X143210000Y-78150000D01*
X143610000Y-76400000D02*
X143610000Y-78100000D01*
X143710000Y-76400000D02*
X143710000Y-78150000D01*
X143810000Y-76400000D02*
X143810000Y-78150000D01*
X143910000Y-76400000D02*
X143910000Y-78150000D01*
X144010000Y-76400000D02*
X144010000Y-78150000D01*
X144110000Y-76400000D02*
X144110000Y-78150000D01*
X144210000Y-76400000D02*
X144210000Y-78150000D01*
X144510000Y-78150000D02*
X143010000Y-78150000D01*
X143010000Y-78150000D02*
X143010000Y-76400000D01*
X143110000Y-76400000D02*
X143110000Y-78150000D01*
X144310000Y-76400000D02*
X144310000Y-78150000D01*
X144410000Y-76400000D02*
X144410000Y-78150000D01*
X144510000Y-76400000D02*
X144510000Y-78150000D01*
X143010000Y-76400000D02*
X144510000Y-76400000D01*
X143310000Y-76400000D02*
X143310000Y-78150000D01*
X143410000Y-76400000D02*
X143410000Y-78150000D01*
X143510000Y-76400000D02*
X143510000Y-78150000D01*
X145210000Y-74100000D02*
X145210000Y-75900000D01*
X145610000Y-74100000D02*
X145610000Y-75900000D01*
X145710000Y-74100000D02*
X145710000Y-75900000D01*
X145810000Y-74100000D02*
X145810000Y-75900000D01*
X146510000Y-78150000D02*
X145010000Y-78150000D01*
X145010000Y-78150000D02*
X145010000Y-76400000D01*
X145210000Y-76400000D02*
X145210000Y-78150000D01*
X145310000Y-76400000D02*
X145310000Y-78150000D01*
X146010000Y-76400000D02*
X146010000Y-78150000D01*
X146110000Y-76400000D02*
X146110000Y-78150000D01*
X146410000Y-76400000D02*
X146410000Y-78150000D01*
X146310000Y-76400000D02*
X146310000Y-78150000D01*
X146210000Y-76400000D02*
X146210000Y-78150000D01*
X146510000Y-76400000D02*
X146510000Y-78150000D01*
X145010000Y-76400000D02*
X146510000Y-76400000D01*
X145110000Y-76400000D02*
X145110000Y-78150000D01*
X145410000Y-76400000D02*
X145410000Y-78150000D01*
X145910000Y-76400000D02*
X145910000Y-78150000D01*
X145710000Y-76400000D02*
X145710000Y-78150000D01*
X145610000Y-76400000D02*
X145610000Y-78100000D01*
X145810000Y-76400000D02*
X145810000Y-78150000D01*
X145510000Y-76400000D02*
X145510000Y-78150000D01*
X146510000Y-74100000D02*
X146510000Y-75900000D01*
X146510000Y-75900000D02*
X145010000Y-75900000D01*
X145010000Y-75900000D02*
X145010000Y-74100000D01*
X145110000Y-74100000D02*
X145110000Y-75900000D01*
X146310000Y-74100000D02*
X146310000Y-75900000D01*
X146410000Y-74100000D02*
X146410000Y-75900000D01*
X145010000Y-74100000D02*
X146510000Y-74100000D01*
X145310000Y-74100000D02*
X145310000Y-75900000D01*
X145410000Y-74100000D02*
X145410000Y-75900000D01*
X145510000Y-74100000D02*
X145510000Y-75900000D01*
X145910000Y-74100000D02*
X145910000Y-75900000D01*
X146010000Y-74100000D02*
X146010000Y-75900000D01*
X146110000Y-74100000D02*
X146110000Y-75900000D01*
X146210000Y-74100000D02*
X146210000Y-75900000D01*
X145010000Y-71850000D02*
X146510000Y-71850000D01*
X145210000Y-71850000D02*
X145210000Y-73600000D01*
X146410000Y-71850000D02*
X146410000Y-73600000D01*
X146510000Y-71850000D02*
X146510000Y-73600000D01*
X146010000Y-71850000D02*
X146010000Y-73600000D01*
X146310000Y-71850000D02*
X146310000Y-73600000D01*
X146110000Y-71850000D02*
X146110000Y-73600000D01*
X145910000Y-71850000D02*
X145910000Y-73600000D01*
X146210000Y-71850000D02*
X146210000Y-73600000D01*
X146510000Y-73600000D02*
X145010000Y-73600000D01*
X145310000Y-71850000D02*
X145310000Y-73600000D01*
X145010000Y-73600000D02*
X145010000Y-71850000D01*
X145110000Y-71850000D02*
X145110000Y-73600000D01*
X145410000Y-71850000D02*
X145410000Y-73600000D01*
X145810000Y-71850000D02*
X145810000Y-73600000D01*
X145710000Y-71850000D02*
X145710000Y-73600000D01*
X145510000Y-71850000D02*
X145510000Y-73600000D01*
X145610000Y-71850000D02*
X145610000Y-73550000D01*
D11*
X105918000Y-65405000D03*
D12*
X112522000Y-65405000D03*
X112522000Y-63119000D03*
X112522000Y-67691000D03*
D13*
X148513800Y-64998600D03*
X150013800Y-64998600D03*
D14*
X152506560Y-64770000D03*
X155506560Y-64770000D03*
D15*
X118110000Y-79768000D03*
X118110000Y-81268000D03*
D16*
X121723200Y-75184000D03*
X121723200Y-76454000D03*
X121723200Y-77724000D03*
X121723200Y-78994000D03*
X121723200Y-80264000D03*
X121723200Y-81534000D03*
X121723200Y-82804000D03*
X127123200Y-82804000D03*
X127123200Y-81534000D03*
X127123200Y-80264000D03*
X127123200Y-78994000D03*
X127123200Y-77724000D03*
X127123200Y-76454000D03*
X127123200Y-75184000D03*
D13*
X116292738Y-77724000D03*
X117792738Y-77724000D03*
D17*
X116078000Y-81268000D03*
X116078000Y-79768000D03*
X133159500Y-75386500D03*
X133159500Y-76886500D03*
D13*
X134933000Y-70993000D03*
X136433000Y-70993000D03*
X134933000Y-73152000D03*
X136433000Y-73152000D03*
X137198680Y-68559680D03*
X138698680Y-68559680D03*
X157397460Y-73149460D03*
X155897460Y-73149460D03*
D17*
X150389600Y-69605020D03*
X150389600Y-68105020D03*
X150361660Y-78392020D03*
X150361660Y-79892020D03*
D13*
X153045300Y-71117460D03*
X151545300Y-71117460D03*
X153042760Y-76868020D03*
X151542760Y-76868020D03*
X157390540Y-74848720D03*
X155890540Y-74848720D03*
D14*
X152530560Y-83367880D03*
X155530560Y-83367880D03*
D18*
X179287180Y-62600000D03*
X179287180Y-59600000D03*
X179264320Y-72600000D03*
X179264320Y-69600000D03*
X179264320Y-82600000D03*
X179264320Y-79600000D03*
X179271940Y-92600000D03*
X179271940Y-89600000D03*
D19*
X112803700Y-75057000D03*
X114302300Y-75057000D03*
X112803700Y-72511250D03*
X114302300Y-72511250D03*
D20*
X112803000Y-77724000D03*
X114303000Y-77724000D03*
X116292738Y-75051250D03*
X117792738Y-75051250D03*
D15*
X115570000Y-66905000D03*
X115570000Y-65405000D03*
D20*
X116292738Y-72511250D03*
X117792738Y-72511250D03*
D15*
X115570000Y-68592000D03*
X115570000Y-70092000D03*
D17*
X129984500Y-75377040D03*
X129984500Y-76877040D03*
X117856000Y-65417000D03*
X117856000Y-66917000D03*
D18*
X123063000Y-64008000D03*
X123063000Y-67008000D03*
D21*
X137826700Y-83592300D03*
X137026700Y-83592300D03*
X138626700Y-83592300D03*
X136226700Y-83592300D03*
X138626700Y-85292300D03*
X137826700Y-85292300D03*
X137026700Y-85292300D03*
X136226700Y-85292300D03*
D18*
X193929000Y-69263000D03*
X193929000Y-72263000D03*
D13*
X127877000Y-64008000D03*
X126377000Y-64008000D03*
D17*
X128651000Y-53975000D03*
X128651000Y-55475000D03*
D22*
X123825000Y-59905000D03*
X123825000Y-52705000D03*
D23*
X141010000Y-69250000D03*
X141010000Y-69750000D03*
X141010000Y-70250000D03*
X141010000Y-70750000D03*
X141010000Y-71250000D03*
X141010000Y-71750000D03*
X141010000Y-72250000D03*
X141010000Y-72750000D03*
X141010000Y-73250000D03*
X141010000Y-73750000D03*
X141010000Y-74250000D03*
X141010000Y-74750000D03*
X141010000Y-75250000D03*
X141010000Y-75750000D03*
X141010000Y-76250000D03*
X141010000Y-76750000D03*
X141010000Y-77250000D03*
X141010000Y-77750000D03*
X141010000Y-78250000D03*
X141010000Y-78750000D03*
X141010000Y-79250000D03*
X141010000Y-79750000D03*
X141010000Y-80250000D03*
X141010000Y-80750000D03*
X148510000Y-80750000D03*
X148510000Y-80250000D03*
X148510000Y-79750000D03*
X148510000Y-79250000D03*
X148510000Y-78750000D03*
X148510000Y-78250000D03*
X148510000Y-77750000D03*
X148510000Y-77250000D03*
X148510000Y-76750000D03*
X148510000Y-76250000D03*
X148510000Y-75750000D03*
X148510000Y-75250000D03*
X148510000Y-74750000D03*
X148510000Y-74250000D03*
X148510000Y-73750000D03*
X148510000Y-73250000D03*
X148510000Y-72750000D03*
X148510000Y-72250000D03*
X148510000Y-71750000D03*
X148510000Y-71250000D03*
X148510000Y-70750000D03*
X148510000Y-70250000D03*
X148510000Y-69750000D03*
X148510000Y-69250000D03*
D24*
X135255000Y-53340000D03*
D25*
X131273000Y-52420000D03*
X131273000Y-54260000D03*
M02*
