M48
;DRILL file {KiCad 4.0.2-stable} date 19.06.2016 23:36:05
;FORMAT={-:-/ absolute / metric / decimal}
FMAT,2
METRIC,TZ
T1C0.300
T2C0.650
T3C0.800
T4C1.016
T5C1.300
T6C3.200
%
G90
G05
M71
T1
X111.76Y-93.98
X116.205Y-93.98
X116.332Y-86.995
X117.856Y-68.834
X117.856Y-70.358
X119.38Y-59.69
X119.634Y-77.724
X121.285Y-62.23
X121.285Y-86.995
X122.428Y-68.834
X123.825Y-62.23
X123.825Y-68.834
X124.46Y-80.264
X126.365Y-62.23
X126.365Y-86.995
X127.381Y-55.499
X128.651Y-61.214
X129.794Y-55.499
X130.048Y-59.817
X130.65Y-63.25
X130.683Y-81.153
X131.445Y-58.42
X131.445Y-86.995
X131.555Y-72.834
X131.572Y-75.377
X131.9Y-82.4
X131.953Y-79.883
X132.2Y-61.722
X133.223Y-78.613
X133.25Y-81.05
X133.35Y-63.5
X133.55Y-60.35
X134.366Y-83.82
X134.5Y-79.8
X138.43Y-60.325
X138.43Y-63.5
X140.97Y-60.325
X140.97Y-63.5
X140.97Y-66.04
X140.97Y-83.82
X140.97Y-86.36
X140.97Y-89.535
X142.24Y-67.945
X142.24Y-69.215
X142.24Y-70.485
X142.24Y-71.755
X142.24Y-73.025
X142.24Y-74.295
X142.24Y-75.565
X142.24Y-76.835
X142.24Y-78.105
X142.24Y-79.375
X142.24Y-80.645
X142.24Y-81.915
X142.875Y-63.5
X142.875Y-66.04
X142.875Y-83.82
X142.875Y-86.36
X143.51Y-67.945
X143.51Y-69.215
X143.51Y-70.485
X143.51Y-71.755
X143.51Y-73.025
X143.51Y-74.295
X143.51Y-75.565
X143.51Y-76.835
X143.51Y-78.105
X143.51Y-79.375
X143.51Y-80.645
X143.51Y-81.915
X144.78Y-55.88
X144.78Y-60.325
X144.78Y-63.5
X144.78Y-66.04
X144.78Y-67.945
X144.78Y-69.215
X144.78Y-70.485
X144.78Y-71.755
X144.78Y-73.025
X144.78Y-74.295
X144.78Y-75.565
X144.78Y-76.835
X144.78Y-78.105
X144.78Y-79.375
X144.78Y-80.645
X144.78Y-81.915
X144.78Y-83.82
X144.78Y-86.36
X144.78Y-89.535
X144.78Y-93.98
X146.05Y-67.945
X146.05Y-69.215
X146.05Y-70.485
X146.05Y-71.755
X146.05Y-73.025
X146.05Y-74.295
X146.05Y-75.565
X146.05Y-76.835
X146.05Y-78.105
X146.05Y-79.375
X146.05Y-80.645
X146.05Y-81.915
X146.685Y-63.5
X146.685Y-66.04
X146.685Y-83.82
X146.685Y-86.36
X147.32Y-67.945
X147.32Y-69.215
X147.32Y-70.485
X147.32Y-71.755
X147.32Y-73.025
X147.32Y-74.295
X147.32Y-75.565
X147.32Y-76.835
X147.32Y-78.105
X147.32Y-79.375
X147.32Y-80.645
X147.32Y-81.915
X148.463Y-55.88
X148.514Y-63.805
X148.59Y-83.82
X148.59Y-86.36
X148.59Y-89.535
X148.59Y-93.98
X150.368Y-66.675
X150.368Y-81.407
X151.765Y-58.96
X151.765Y-60.071
X151.765Y-90.964
X151.765Y-92.075
X152.527Y-59.563
X152.527Y-91.567
X153.289Y-58.928
X153.289Y-60.071
X153.289Y-90.932
X153.289Y-92.075
X155.575Y-67.31
X155.575Y-80.645
X156.845Y-57.785
X156.845Y-93.345
X156.972Y-64.262
X156.972Y-65.405
X156.972Y-82.804
X156.972Y-83.947
X159.385Y-67.31
X159.385Y-80.645
X161.29Y-65.405
X161.29Y-82.55
X163.195Y-57.785
X163.195Y-63.5
X163.195Y-84.455
X163.195Y-93.345
X164.465Y-73.977
X167.195Y-71.247
X167.195Y-76.708
X178.054Y-57.658
X178.054Y-67.691
X178.054Y-77.851
X178.054Y-87.63
X179.324Y-57.658
X179.324Y-67.691
X179.324Y-77.851
X179.324Y-87.63
X180.594Y-57.658
X180.594Y-67.691
X180.594Y-77.851
X180.594Y-87.63
X193.167Y-74.454
X193.167Y-75.565
X193.929Y-75.057
X194.691Y-74.422
X194.691Y-75.565
X198.12Y-62.23
X198.12Y-68.58
X198.12Y-74.93
X198.12Y-81.28
X198.12Y-86.995
T2
X126.492Y-70.231
X129.032Y-67.691
X131.572Y-70.231
X166.5Y-59.
X166.5Y-69.
X166.5Y-79.
X166.5Y-89.
X173.5Y-62.6
X173.5Y-72.6
X173.5Y-82.6
X173.5Y-92.6
T3
X184.Y-75.
X189.Y-75.
T4
X122.094Y-91.643
X122.094Y-94.183
X124.634Y-91.643
X124.634Y-94.183
X127.174Y-91.643
X127.174Y-94.183
X129.714Y-91.643
X129.714Y-94.183
X132.254Y-91.643
X132.254Y-94.183
X134.794Y-91.643
X134.794Y-94.183
X137.334Y-91.643
X137.334Y-94.183
X139.874Y-91.643
X139.874Y-94.183
T5
X111.8Y-55.974
X116.8Y-55.974
X185.801Y-61.
X185.801Y-66.
X185.801Y-83.987
X185.801Y-88.987
T6
X105.Y-55.
X105.Y-95.
X195.Y-55.
X195.Y-95.
T0
M30
